{
  "accessors": [
    {
      "bufferView": 2,
      "componentType": 5126,
      "count": 15416,
      "max": [
        11.718793869018555,
        64.86915588378906,
        5.720521926879883
      ],
      "min": [
        -11.940303802490234,
        36.80270004272461,
        -5.673858642578125
      ],
      "type": "VEC3"
    },
    {
      "bufferView": 2,
      "byteOffset": 184992,
      "componentType": 5126,
      "count": 15416,
      "max": [
        0.9999719858169556,
        0.9604895710945129,
        0.9999833703041077
      ],
      "min": [
        -0.9999754428863525,
        -0.9972192049026489,
        -0.999990701675415
      ],
      "type": "VEC3"
    },
    {
      "bufferView": 3,
      "componentType": 5126,
      "count": 15416,
      "max": [
        0.9999977946281433,
        0.9385169148445129,
        0.9999949336051941,
        1.0
      ],
      "min": [
        -0.9999998211860657,
        -0.9983214735984802,
        -0.9999949932098389,
        -1.0
      ],
      "type": "VEC4"
    },
    {
      "bufferView": 1,
      "componentType": 5126,
      "count": 15416,
      "max": [
        0.9879860281944275,
        0.95660400390625
      ],
      "min": [
        0.013255000114440918,
        0.011878013610839844
      ],
      "type": "VEC2"
    },
    {
      "bufferView": 1,
      "byteOffset": 123328,
      "componentType": 5126,
      "count": 15416,
      "max": [
        0.9879860281944275,
        0.95660400390625
      ],
      "min": [
        0.013255000114440918,
        0.011878013610839844
      ],
      "type": "VEC2"
    },
    {
      "bufferView": 1,
      "byteOffset": 246656,
      "componentType": 5126,
      "count": 15416,
      "max": [
        0.9879860281944275,
        0.95660400390625
      ],
      "min": [
        0.013255000114440918,
        0.011878013610839844
      ],
      "type": "VEC2"
    },
    {
      "bufferView": 1,
      "byteOffset": 369984,
      "componentType": 5126,
      "count": 15416,
      "max": [
        0.9879860281944275,
        0.95660400390625
      ],
      "min": [
        0.013255000114440918,
        0.011878013610839844
      ],
      "type": "VEC2"
    },
    {
      "bufferView": 1,
      "byteOffset": 493312,
      "componentType": 5126,
      "count": 15416,
      "max": [
        0.9879860281944275,
        0.95660400390625
      ],
      "min": [
        0.013255000114440918,
        0.011878013610839844
      ],
      "type": "VEC2"
    },
    {
      "bufferView": 0,
      "componentType": 5125,
      "count": 89034,
      "type": "SCALAR"
    }
  ],
  "asset": {
    "extras": {
      "author": "BINARYCLOTH (https://sketchfab.com/binaryclothofficial)",
      "license": "CC-BY-4.0 (http://creativecommons.org/licenses/by/4.0/)",
      "source": "https://sketchfab.com/3d-models/men-regular-apparel-fit-sporty-t-shirt-4d055bb8c1e04549a4b2dac7b27ebb2c",
      "title": "Men Regular Apparel Fit Sporty T-Shirt"
    },
    "generator": "Sketchfab-15.30.0",
    "version": "2.0"
  },
  "bufferViews": [
    {
      "buffer": 0,
      "byteLength": 356136,
      "name": "floatBufferViews",
      "target": 34963
    },
    {
      "buffer": 0,
      "byteLength": 616640,
      "byteOffset": 356136,
      "byteStride": 8,
      "name": "floatBufferViews",
      "target": 34962
    },
    {
      "buffer": 0,
      "byteLength": 369984,
      "byteOffset": 972776,
      "byteStride": 12,
      "name": "floatBufferViews",
      "target": 34962
    },
    {
      "buffer": 0,
      "byteLength": 246656,
      "byteOffset": 1342760,
      "byteStride": 16,
      "name": "floatBufferViews",
      "target": 34962
    }
  ],
  "buffers": [
    {
      "byteLength": 1589416,
      "uri": "scene.bin"
    }
  ],
  "extensionsUsed": [
    "KHR_materials_specular"
  ],
  "images": [
    {
      "uri": "textures/Default_material_baseColor.jpeg"
    },
    {
      "uri": "textures/Default_material_metallicRoughness.png"
    },
    {
      "uri": "textures/Default_material_normal.jpeg"
    },
    {
      "uri": "textures/Default_material_specularf0.png"
    }
  ],
  "materials": [
    {
      "doubleSided": true,
      "extensions": {
        "KHR_materials_specular": {
          "specularColorFactor": [
            1.0,
            1.0,
            1.0
          ],
          "specularFactor": 1.0,
          "specularTexture": {
            "index": 3
          }
        }
      },
      "name": "Default_material",
      "normalTexture": {
        "index": 2
      },
      "occlusionTexture": {
        "index": 1
      },
      "pbrMetallicRoughness": {
        "baseColorTexture": {
          "index": 0
        },
        "metallicRoughnessTexture": {
          "index": 1
        }
      }
    }
  ],
  "meshes": [
    {
      "name": "Object_0",
      "primitives": [
        {
          "attributes": {
            "NORMAL": 1,
            "POSITION": 0,
            "TANGENT": 2,
            "TEXCOORD_0": 3,
            "TEXCOORD_1": 4,
            "TEXCOORD_2": 5,
            "TEXCOORD_3": 6,
            "TEXCOORD_4": 7
          },
          "indices": 8,
          "material": 0,
          "mode": 4
        }
      ]
    }
  ],
  "nodes": [
    {
      "children": [
        1
      ],
      "matrix": [
        1.0,
        0.0,
        0.0,
        0.0,
        0.0,
        2.220446049250313e-16,
        -1.0,
        0.0,
        0.0,
        1.0,
        2.220446049250313e-16,
        0.0,
        0.0,
        0.0,
        0.0,
        1.0
      ],
      "name": "Sketchfab_model"
    },
    {
      "children": [
        2
      ],
      "name": "root"
    },
    {
      "children": [
        3
      ],
      "matrix": [
        1.0,
        0.0,
        0.0,
        0.0,
        0.0,
        2.220446049250313e-16,
        1.0,
        0.0,
        0.0,
        -1.0,
        2.220446049250313e-16,
        0.0,
        0.0,
        0.0,
        0.0,
        1.0
      ],
      "name": "GLTF_SceneRootNode"
    },
    {
      "children": [
        4
      ],
      "name": "RAGLAN%20TEE%2001_(OPTIMIZED).obj_0"
    },
    {
      "children": [
        5
      ],
      "name": "default_1"
    },
    {
      "children": [
        6
      ],
      "name": "default_2"
    },
    {
      "mesh": 0,
      "name": "Object_6"
    }
  ],
  "samplers": [
    {
      "magFilter": 9729,
      "minFilter": 9987,
      "wrapS": 10497,
      "wrapT": 10497
    }
  ],
  "scene": 0,
  "scenes": [
    {
      "name": "Sketchfab_Scene",
      "nodes": [
        0
      ]
    }
  ],
  "textures": [
    {
      "sampler": 0,
      "source": 0
    },
    {
      "sampler": 0,
      "source": 1
    },
    {
      "sampler": 0,
      "source": 2
    },
    {
      "sampler": 0,
      "source": 3
    }
  ]
}
